<mxfile host="app.diagrams.net" modified="2023-09-11T05:48:12.125Z" agent="Mozilla/5.0 (Windows NT 10.0; Win64; x64) AppleWebKit/537.36 (KHTML, like Gecko) Chrome/116.0.0.0 Safari/537.36" etag="FNmH2J0qiIsFqWyHinXy" version="21.7.4" type="github">
  <diagram name="Page-1" id="m3zs-krMFZAUflGR6T-J">
    <mxGraphModel dx="1035" dy="562" grid="1" gridSize="10" guides="1" tooltips="1" connect="1" arrows="1" fold="1" page="1" pageScale="1" pageWidth="850" pageHeight="1100" math="0" shadow="0">
      <root>
        <mxCell id="0" />
        <mxCell id="1" parent="0" />
        <mxCell id="GlTGA9lF2SaImy02ELS8-1" value="komputer" style="shape=umlActor;verticalLabelPosition=bottom;verticalAlign=top;html=1;outlineConnect=0;" vertex="1" parent="1">
          <mxGeometry x="120" y="170" width="60" height="90" as="geometry" />
        </mxCell>
        <mxCell id="GlTGA9lF2SaImy02ELS8-2" value="" style="rounded=0;whiteSpace=wrap;html=1;direction=south;" vertex="1" parent="1">
          <mxGeometry x="245" y="60" width="220" height="320" as="geometry" />
        </mxCell>
        <mxCell id="GlTGA9lF2SaImy02ELS8-3" value="user" style="shape=umlActor;verticalLabelPosition=bottom;verticalAlign=top;html=1;outlineConnect=0;" vertex="1" parent="1">
          <mxGeometry x="560" y="170" width="60" height="100" as="geometry" />
        </mxCell>
        <mxCell id="GlTGA9lF2SaImy02ELS8-6" value="game tebak angka" style="text;strokeColor=none;align=center;fillColor=none;html=1;verticalAlign=middle;whiteSpace=wrap;rounded=0;strokeWidth=1;fontStyle=1;fontSize=17;" vertex="1" parent="1">
          <mxGeometry x="285" y="60" width="150" height="50" as="geometry" />
        </mxCell>
        <mxCell id="GlTGA9lF2SaImy02ELS8-8" value="" style="ellipse;whiteSpace=wrap;html=1;" vertex="1" parent="1">
          <mxGeometry x="275" y="110" width="160" height="90" as="geometry" />
        </mxCell>
        <mxCell id="GlTGA9lF2SaImy02ELS8-13" value="Random angka" style="text;strokeColor=none;align=center;fillColor=none;html=1;verticalAlign=middle;whiteSpace=wrap;rounded=0;fontSize=15;" vertex="1" parent="1">
          <mxGeometry x="305" y="140" width="110" height="30" as="geometry" />
        </mxCell>
        <mxCell id="GlTGA9lF2SaImy02ELS8-15" value="" style="ellipse;whiteSpace=wrap;html=1;" vertex="1" parent="1">
          <mxGeometry x="280" y="230" width="160" height="100" as="geometry" />
        </mxCell>
        <mxCell id="GlTGA9lF2SaImy02ELS8-16" value="Tebak angka" style="text;strokeColor=none;align=center;fillColor=none;html=1;verticalAlign=middle;whiteSpace=wrap;rounded=0;fontSize=15;" vertex="1" parent="1">
          <mxGeometry x="310" y="260" width="100" height="30" as="geometry" />
        </mxCell>
        <mxCell id="GlTGA9lF2SaImy02ELS8-17" value="" style="endArrow=none;html=1;rounded=0;exitX=1;exitY=0.375;exitDx=0;exitDy=0;exitPerimeter=0;" edge="1" parent="1" source="GlTGA9lF2SaImy02ELS8-15" target="GlTGA9lF2SaImy02ELS8-3">
          <mxGeometry width="50" height="50" relative="1" as="geometry">
            <mxPoint x="450" y="270" as="sourcePoint" />
            <mxPoint x="550" y="240" as="targetPoint" />
          </mxGeometry>
        </mxCell>
        <mxCell id="GlTGA9lF2SaImy02ELS8-28" value="" style="endArrow=none;html=1;rounded=0;entryX=0.048;entryY=0.719;entryDx=0;entryDy=0;entryPerimeter=0;" edge="1" parent="1" target="GlTGA9lF2SaImy02ELS8-8">
          <mxGeometry width="50" height="50" relative="1" as="geometry">
            <mxPoint x="180" y="220" as="sourcePoint" />
            <mxPoint x="470" y="230" as="targetPoint" />
          </mxGeometry>
        </mxCell>
      </root>
    </mxGraphModel>
  </diagram>
</mxfile>
